<svg width="313" height="90" viewBox="0 0 313 90" fill="none" xmlns="http://www.w3.org/2000/svg">
<path d="M115.947 28.4254C113.051 26.8354 109.599 26.0405 105.587 26.0405H91.3315V65.921H105.469C109.521 65.921 113.002 65.1225 115.918 63.5256C118.832 61.9295 121.07 59.638 122.637 56.6518C124.2 53.6656 124.981 50.0956 124.981 45.9419C124.981 41.8003 124.2 38.2426 122.637 35.2712C121.069 32.2982 118.841 30.0162 115.947 28.4254ZM115.275 53.2153C114.411 55.0915 113.127 56.4738 111.42 57.363C109.71 58.2522 107.611 58.6964 105.118 58.6964H99.763V33.265H105.138C107.631 33.265 109.729 33.7057 111.428 34.5897C113.128 35.472 114.412 36.8481 115.275 38.7173C116.136 40.5874 116.569 42.995 116.569 45.9419C116.569 48.9141 116.136 51.3392 115.275 53.2153Z" fill="white"/>
<path d="M149.295 38.0165C148.105 37.1989 146.749 36.5941 145.225 36.205C143.698 35.8158 142.105 35.6212 140.443 35.6212C138.054 35.6212 135.955 35.9816 134.145 36.7015C132.333 37.4223 130.856 38.4485 129.713 39.7784C128.571 41.1092 127.806 42.6834 127.418 44.5011L135.089 45.1251C135.374 44.1381 135.959 43.317 136.843 42.6616C137.724 42.0054 138.911 41.6773 140.406 41.6773C141.82 41.6773 142.914 42.015 143.686 42.6904C144.458 43.365 144.844 44.3196 144.844 45.5535V45.6696C144.844 46.3066 144.605 46.7866 144.126 47.1112C143.644 47.4358 142.872 47.6793 141.807 47.8407C140.743 48.0039 139.34 48.1758 137.601 48.3573C136.122 48.5004 134.709 48.7465 133.366 49.0973C132.023 49.4472 130.825 49.9673 129.774 50.6558C128.72 51.3444 127.891 52.2519 127.279 53.3811C126.67 54.5112 126.364 55.9065 126.364 57.568C126.364 59.5419 126.797 61.1869 127.661 62.5045C128.522 63.8222 129.7 64.8153 131.195 65.4829C132.688 66.1513 134.388 66.4855 136.296 66.4855C137.775 66.4855 139.08 66.2866 140.21 65.8921C141.341 65.496 142.307 64.9453 143.113 64.2367C143.916 63.529 144.559 62.7087 145.04 61.7733H145.273V65.9209H153.14V45.7473C153.14 43.9688 152.797 42.4408 152.11 41.1624C151.419 39.8831 150.481 38.8342 149.295 38.0165ZM144.903 55.2294C144.903 56.2818 144.636 57.2233 144.105 58.0532C143.572 58.884 142.84 59.5437 141.905 60.0297C140.97 60.5158 139.893 60.7601 138.672 60.7601C137.401 60.7601 136.352 60.4643 135.526 59.8735C134.703 59.2836 134.29 58.4232 134.29 57.294C134.29 56.5139 134.49 55.8629 134.894 55.3358C135.296 54.8105 135.86 54.3916 136.588 54.081C137.316 53.7686 138.166 53.5425 139.139 53.3994C139.594 53.3349 140.1 53.2598 140.658 53.1752C141.216 53.0905 141.773 52.9937 142.334 52.8828C142.891 52.772 143.394 52.6498 143.841 52.5137C144.29 52.3767 144.643 52.2249 144.903 52.0556V55.2294Z" fill="white"/>
<path d="M170.548 59.5436C170.158 59.6151 169.77 59.6509 169.379 59.6509C168.821 59.6509 168.33 59.5662 167.908 59.3978C167.487 59.2294 167.159 58.9336 166.927 58.5121C166.693 58.0906 166.577 57.4955 166.577 56.7293V42.2417H172.204V36.0111H166.577V28.845H158.28V36.0111H154.19V42.2417H158.28V57.8201C158.267 59.78 158.676 61.4031 159.507 62.6885C160.337 63.9739 161.502 64.9208 163.001 65.5316C164.501 66.1416 166.25 66.4077 168.25 66.3292C169.327 66.2917 170.242 66.1843 170.997 66.0081C171.749 65.8327 172.333 65.6808 172.748 65.5508L171.443 59.3777C171.235 59.4161 170.938 59.472 170.548 59.5436Z" fill="white"/>
<path d="M198.648 41.1615C197.959 39.8831 197.021 38.8341 195.835 38.0165C194.645 37.1988 193.289 36.5941 191.765 36.2049C190.238 35.8157 188.645 35.6211 186.983 35.6211C184.594 35.6211 182.494 35.9815 180.685 36.7014C178.873 37.4222 177.396 38.4484 176.253 39.7783C175.111 41.1091 174.346 42.6834 173.958 44.5011L181.629 45.125C181.914 44.1381 182.499 43.3169 183.383 42.6615C184.264 42.0053 185.451 41.6772 186.946 41.6772C188.36 41.6772 189.454 42.0149 190.226 42.6903C190.998 43.3649 191.384 44.3196 191.384 45.5535V45.6695C191.384 46.3066 191.145 46.7865 190.666 47.1111C190.184 47.4358 189.412 47.6792 188.347 47.8407C187.283 48.0038 185.88 48.1758 184.141 48.3573C182.662 48.5004 181.249 48.7465 179.906 49.0973C178.563 49.4472 177.365 49.9673 176.314 50.6558C175.26 51.3443 174.431 52.2519 173.819 53.3811C173.21 54.5111 172.904 55.9065 172.904 57.568C172.904 59.5419 173.337 61.1868 174.201 62.5045C175.062 63.8222 176.24 64.8152 177.735 65.4828C179.228 66.1512 180.928 66.4855 182.836 66.4855C184.315 66.4855 185.62 66.2865 186.75 65.8921C187.881 65.4959 188.847 64.9453 189.653 64.2367C190.456 63.529 191.099 62.7087 191.581 61.7732H191.813V65.9209H199.68V45.7472C199.679 43.9688 199.336 42.4399 198.648 41.1615ZM191.444 55.2293C191.444 56.2817 191.176 57.2233 190.645 58.0532C190.112 58.8839 189.38 59.5436 188.445 60.0297C187.511 60.5157 186.433 60.7601 185.212 60.7601C183.941 60.7601 182.892 60.4643 182.066 59.8735C181.242 59.2836 180.83 58.4232 180.83 57.294C180.83 56.5138 181.03 55.8628 181.434 55.3358C181.836 54.8104 182.4 54.3916 183.128 54.0809C183.856 53.7685 184.706 53.5425 185.679 53.3994C186.134 53.3348 186.641 53.2598 187.198 53.1751C187.756 53.0905 188.313 52.9936 188.874 52.8828C189.431 52.7719 189.934 52.6498 190.382 52.5136C190.83 52.3766 191.183 52.2248 191.444 52.0555V55.2293Z" fill="white"/>
<path d="M234.718 46.7595C233.654 45.8109 232.395 45.0133 230.941 44.3641C229.486 43.7148 227.891 43.1956 226.15 42.8055L222.567 41.9486C221.697 41.7549 220.88 41.5184 220.115 41.2383C219.347 40.959 218.673 40.6292 218.088 40.2452C217.504 39.8621 217.046 39.4049 216.717 38.8734C216.384 38.3411 216.232 37.7181 216.259 37.0034C216.259 36.1464 216.509 35.3811 217.009 34.7048C217.509 34.0303 218.232 33.5015 219.18 33.1184C220.126 32.7353 221.288 32.5442 222.665 32.5442C224.692 32.5442 226.294 32.9796 227.476 33.8488C228.657 34.7188 229.326 35.9396 229.48 37.5104H237.561C237.524 35.1342 236.888 33.0442 235.654 31.2396C234.42 29.4358 232.697 28.0265 230.484 27.0143C228.271 26.0011 225.685 25.495 222.724 25.495C219.816 25.495 217.219 26.0011 214.935 27.0143C212.65 28.0265 210.856 29.435 209.55 31.2396C208.245 33.0451 207.6 35.1542 207.614 37.5688C207.601 40.5166 208.567 42.8588 210.515 44.5988C212.462 46.3389 215.118 47.6181 218.48 48.4358L222.822 49.5257C224.275 49.8757 225.507 50.2666 226.513 50.6951C227.517 51.1235 228.284 51.6419 228.809 52.2527C229.335 52.8627 229.599 53.6158 229.599 54.512C229.599 55.4728 229.306 56.3227 228.722 57.0627C228.137 57.8027 227.316 58.3804 226.258 58.7966C225.2 59.212 223.958 59.4188 222.529 59.4188C221.075 59.4188 219.773 59.1946 218.624 58.7469C217.475 58.2993 216.56 57.6299 215.877 56.7407C215.196 55.8515 214.811 54.738 214.719 53.402H206.559C206.624 56.2712 207.322 58.6754 208.654 60.617C209.984 62.5569 211.84 64.0211 214.223 65.0081C216.604 65.9942 219.404 66.4872 222.624 66.4872C225.871 66.4872 228.646 65.9959 230.949 65.0168C233.254 64.0377 235.019 62.6555 236.246 60.87C237.473 59.0846 238.094 56.972 238.107 54.5312C238.094 52.8697 237.79 51.3967 237.201 50.1113C236.611 48.8241 235.783 47.7072 234.718 46.7595Z" fill="#FFAD00"/>
<path d="M261.835 38.0165C260.645 37.1989 259.289 36.5941 257.765 36.205C256.238 35.8158 254.645 35.6212 252.983 35.6212C250.594 35.6212 248.495 35.9816 246.685 36.7015C244.873 37.4223 243.396 38.4485 242.253 39.7784C241.111 41.1092 240.346 42.6834 239.958 44.5011L247.629 45.1251C247.914 44.1381 248.499 43.317 249.383 42.6616C250.264 42.0054 251.451 41.6773 252.946 41.6773C254.36 41.6773 255.454 42.015 256.226 42.6904C256.998 43.365 257.384 44.3196 257.384 45.5535V45.6696C257.384 46.3066 257.145 46.7866 256.666 47.1112C256.184 47.4358 255.412 47.6793 254.347 47.8407C253.283 48.0039 251.88 48.1758 250.141 48.3573C248.662 48.5004 247.249 48.7465 245.906 49.0973C244.563 49.4472 243.365 49.9673 242.314 50.6558C241.26 51.3444 240.431 52.2519 239.819 53.3811C239.21 54.5112 238.904 55.9065 238.904 57.568C238.904 59.5419 239.337 61.1869 240.201 62.5045C241.062 63.8222 242.24 64.8153 243.735 65.4829C245.228 66.1513 246.928 66.4855 248.836 66.4855C250.315 66.4855 251.62 66.2866 252.75 65.8921C253.881 65.496 254.847 64.9453 255.653 64.2367C256.457 63.529 257.099 62.7087 257.581 61.7733H257.813V65.9209H265.68V45.7473C265.68 43.9688 265.337 42.4408 264.65 41.1624C263.96 39.8831 263.022 38.8342 261.835 38.0165ZM257.444 55.2294C257.444 56.2818 257.176 57.2233 256.645 58.0532C256.112 58.884 255.38 59.5437 254.445 60.0297C253.511 60.5158 252.433 60.7601 251.212 60.7601C249.941 60.7601 248.892 60.4643 248.066 59.8735C247.243 59.2836 246.83 58.4232 246.83 57.294C246.83 56.5139 247.03 55.8629 247.434 55.3358C247.836 54.8105 248.4 54.3916 249.128 54.081C249.856 53.7686 250.706 53.5425 251.679 53.3994C252.134 53.3349 252.641 53.2598 253.198 53.1752C253.756 53.0905 254.313 52.9937 254.874 52.8828C255.431 52.772 255.934 52.6498 256.382 52.5137C256.83 52.3767 257.183 52.2249 257.444 52.0556V55.2294Z" fill="#FFAD00"/>
<path d="M284.919 42.2418V36.0111H278.962V34.0049C278.962 32.9918 279.201 32.2029 279.683 31.6383C280.163 31.0737 281.012 30.7919 282.233 30.7919C282.726 30.7919 283.211 30.8372 283.684 30.928C284.157 31.0196 284.556 31.1165 284.882 31.2203L286.361 24.9897C285.841 24.8335 285.054 24.6581 283.996 24.4635C282.938 24.2697 281.772 24.1711 280.499 24.1711C278.619 24.1711 276.936 24.5289 275.456 25.2419C273.977 25.9566 272.811 27.0282 271.96 28.4549C271.11 29.8843 270.686 31.6811 270.686 33.8487V36.0111H266.459V42.2418H270.686V65.9208H278.962V42.2418H284.919Z" fill="#FFAD00"/>
<path d="M313 53.0879V50.8094C313 48.2657 312.643 46.0422 311.929 44.1399C311.216 42.2393 310.22 40.658 308.941 39.3988C307.663 38.1396 306.17 37.1954 304.463 36.5653C302.754 35.9362 300.916 35.6212 298.941 35.6212C296.007 35.6212 293.455 36.2704 291.279 37.568C289.106 38.8665 287.421 40.6772 286.226 43.0011C285.032 45.3249 284.436 48.0249 284.436 51.1018C284.436 54.2564 285.032 56.986 286.226 59.2906C287.422 61.5944 289.124 63.3728 291.338 64.6259C293.552 65.8791 296.197 66.5056 299.274 66.5056C301.74 66.5056 303.918 66.126 305.808 65.3668C307.695 64.6067 309.242 63.543 310.442 62.173C311.643 60.8029 312.437 59.1964 312.827 57.3534L305.154 56.8472C304.869 57.6003 304.453 58.2365 303.909 58.7557C303.363 59.274 302.708 59.6641 301.941 59.9242C301.176 60.1842 300.332 60.3134 299.411 60.3134C298.02 60.3134 296.82 60.021 295.807 59.4372C294.794 58.8526 294.013 58.0218 293.463 56.9441C292.909 55.8673 292.634 54.588 292.634 53.1088V53.0888H313V53.0879ZM295.739 42.6799C296.705 42.1022 297.819 41.8134 299.077 41.8134C300.287 41.8134 301.346 42.0769 302.261 42.6023C303.179 43.1276 303.895 43.8519 304.414 44.7734C304.932 45.6958 305.193 46.7534 305.193 47.9472H292.641C292.689 46.873 292.967 45.8895 293.47 44.9977C294.014 44.0299 294.771 43.2576 295.739 42.6799Z" fill="#FFAD00"/>
<path d="M38.486 89.778L0 67.558V23.1188L38.486 0.897949L76.972 23.1188V67.558L38.486 89.778ZM9.62172 62.0036L38.486 78.6684L67.3503 62.0036V28.6741L38.486 12.0084L9.62172 28.6741V62.0036Z" fill="#FFAD00"/>
<path d="M52.5161 42.0489C51.7552 42.0489 51.0283 42.1702 50.3214 42.3474C49.7813 36.2817 44.692 31.5249 38.4858 31.5249C32.2796 31.5249 27.1913 36.2817 26.6511 42.3474C25.9451 42.1711 25.2173 42.0489 24.4564 42.0489C19.4518 42.0489 15.394 46.1058 15.394 51.1113V58.671L38.4858 72.0031L61.5776 58.671V51.1113C61.5776 46.1058 57.5207 42.0489 52.5161 42.0489Z" fill="white"/>
<path d="M0 23.1187L9.62172 28.6739V62.0035L0 67.5579V23.1187Z" fill="#F49600"/>
<path d="M76.9719 23.1187L67.3511 28.6739V62.0035L76.9719 67.5579V23.1187Z" fill="#F49600"/>
<path d="M61.5771 58.6648L38.4853 72.0004L15.3936 58.6648L38.4853 45.33L61.5771 58.6648Z" fill="#E0E0E0"/>
</svg>
